<svg width="78" height="78" viewBox="0 0 78 78" fill="none" xmlns="http://www.w3.org/2000/svg">
<mask id="mask0_7_51" style="mask-type:alpha" maskUnits="userSpaceOnUse" x="0" y="0" width="78" height="78">
<rect width="78" height="78" fill="#D9D9D9"/>
</mask>
<g mask="url(#mask0_7_51)">
<path d="M31.0361 73.0431C27.4065 76.4569 23.1282 78.1222 18.2012 78.039C13.2716 77.9584 9.01929 76.1306 5.44429 72.5556C1.48969 68.601 -0.297812 63.8612 0.0817884 58.3362C0.461388 52.8112 2.87159 48.3158 7.31239 44.85C3.57619 41.925 1.24659 38.1745 0.323588 33.5985C-0.596812 29.0199 0.162388 24.7 2.60119 20.6388C4.60579 17.3888 7.34099 14.9916 10.8068 13.4472C14.2726 11.9028 17.9009 11.4283 21.6917 12.0237C23.1009 8.3967 25.3629 5.486 28.4777 3.2916C31.5925 1.0972 35.0999 0 38.9999 0C42.8999 0 46.4073 1.0972 49.5221 3.2916C52.6369 5.486 54.8989 8.3967 56.3081 12.0237C60.2081 11.3737 63.9443 11.8612 67.5167 13.4862C71.0943 15.1112 73.8035 17.6852 75.6443 21.2082C77.8101 25.2694 78.4328 29.5204 77.5124 33.9612C76.592 38.4046 74.317 42.0342 70.6874 44.85C75.0736 48.2612 77.4708 52.7306 77.879 58.2582C78.2846 63.7806 76.5374 68.5191 72.6374 72.4737C69.117 76.0487 64.879 77.8908 59.9234 78C54.9652 78.1092 50.6453 76.4569 46.9637 73.0431C45.6637 73.3681 44.3494 73.6255 43.0208 73.8153C41.6948 74.0051 40.3545 74.1 38.9999 74.1C37.6453 74.1 36.305 74.0194 34.979 73.8582C33.6504 73.6944 32.3361 73.4227 31.0361 73.0431ZM38.9999 68.25C46.0407 68.25 52.0259 65.7852 56.9555 60.8556C61.8851 55.926 64.3499 49.9408 64.3499 42.9C64.3499 41.2204 64.1744 39.5681 63.8234 37.9431C63.4698 36.3181 62.9953 34.7204 62.3999 33.15C61.0999 33.7454 59.7596 34.2199 58.379 34.5735C56.9984 34.9245 55.6035 35.1 54.1943 35.1C49.2647 35.1 44.9994 33.462 41.3984 30.186C37.7948 26.9074 35.7499 22.8033 35.2637 17.8737C29.0341 18.7967 23.8744 21.6138 19.7846 26.325C15.6948 31.0362 13.6499 36.5612 13.6499 42.9C13.6499 49.9408 16.1147 55.926 21.0443 60.8556C25.9739 65.7852 31.9591 68.25 38.9999 68.25ZM29.2499 48.75C30.3341 48.75 31.2545 48.3704 32.0111 47.6112C32.7703 46.8546 33.1499 45.9342 33.1499 44.85C33.1499 43.7658 32.7703 42.8454 32.0111 42.0888C31.2545 41.3296 30.3341 40.95 29.2499 40.95C28.1657 40.95 27.2453 41.3296 26.4887 42.0888C25.7295 42.8454 25.3499 43.7658 25.3499 44.85C25.3499 45.9342 25.7295 46.8546 26.4887 47.6112C27.2453 48.3704 28.1657 48.75 29.2499 48.75ZM48.7499 48.75C49.8341 48.75 50.7545 48.3704 51.5111 47.6112C52.2703 46.8546 52.6499 45.9342 52.6499 44.85C52.6499 43.7658 52.2703 42.8454 51.5111 42.0888C50.7545 41.3296 49.8341 40.95 48.7499 40.95C47.6657 40.95 46.7453 41.3296 45.9887 42.0888C45.2295 42.8454 44.8499 43.7658 44.8499 44.85C44.8499 45.9342 45.2295 46.8546 45.9887 47.6112C46.7453 48.3704 47.6657 48.75 48.7499 48.75Z" fill="#1C1B1F"/>
</g>
</svg>
