<svg width="78" height="78" viewBox="0 0 78 78" fill="none" xmlns="http://www.w3.org/2000/svg">
<mask id="mask0_7_57" style="mask-type:alpha" maskUnits="userSpaceOnUse" x="0" y="0" width="78" height="78">
<rect width="78" height="78" fill="#D9D9D9"/>
</mask>
<g mask="url(#mask0_7_57)">
<path d="M29.25 44.85C28.1658 44.85 27.2454 44.4704 26.4888 43.7112C25.7296 42.9546 25.35 42.0342 25.35 40.95C25.35 39.8658 25.7296 38.9454 26.4888 38.1888C27.2454 37.4296 28.1658 37.05 29.25 37.05C30.3342 37.05 31.2547 37.4296 32.0113 38.1888C32.7705 38.9454 33.15 39.8658 33.15 40.95C33.15 42.0342 32.7705 42.9546 32.0113 43.7112C31.2547 44.4704 30.3342 44.85 29.25 44.85ZM48.75 44.85C47.6658 44.85 46.7454 44.4704 45.9888 43.7112C45.2296 42.9546 44.85 42.0342 44.85 40.95C44.85 39.8658 45.2296 38.9454 45.9888 38.1888C46.7454 37.4296 47.6658 37.05 48.75 37.05C49.8342 37.05 50.7547 37.4296 51.5113 38.1888C52.2705 38.9454 52.65 39.8658 52.65 40.95C52.65 42.0342 52.2705 42.9546 51.5113 43.7112C50.7547 44.4704 49.8342 44.85 48.75 44.85ZM39 64.35C46.0954 64.35 52.0949 61.8852 56.9985 56.9556C61.8995 52.026 64.3501 46.0408 64.3501 39C64.3501 37.7546 64.2148 36.3324 63.9444 34.7334C63.674 33.137 63.3218 31.7421 62.8876 30.5487C61.7514 30.8217 60.7218 30.9985 59.7988 31.0791C58.8784 31.1597 57.7955 31.2 56.5501 31.2C51.8909 31.2 47.4903 30.2926 43.3485 28.4778C39.2041 26.663 35.5069 24.05 32.2569 20.6388C30.2523 24.8638 27.7199 28.3569 24.6597 31.1181C21.5995 33.8819 17.9842 35.9671 13.8138 37.3737C13.7592 37.5921 13.7176 37.8638 13.689 38.1888C13.663 38.5138 13.65 38.7842 13.65 39C13.65 46.0408 16.1148 52.026 21.0444 56.9556C25.974 61.8852 31.9592 64.35 39 64.35ZM39 70.2C34.7204 70.2 30.6852 69.3875 26.8944 67.7625C23.1036 66.1375 19.786 63.9028 16.9416 61.0584C14.0972 58.214 11.8625 54.8964 10.2375 51.1056C8.61255 47.3148 7.80005 43.2796 7.80005 39C7.80005 34.6658 8.61255 30.6033 10.2375 26.8125C11.8625 23.0217 14.0972 19.7171 16.9416 16.8987C19.786 14.0829 23.1036 11.8625 26.8944 10.2375C30.6852 8.6125 34.7204 7.8 39 7.8C43.3342 7.8 47.3967 8.6125 51.1875 10.2375C54.9783 11.8625 58.2829 14.0829 61.1013 16.8987C63.9171 19.7171 66.1376 23.0217 67.7626 26.8125C69.3876 30.6033 70.2001 34.6658 70.2001 39C70.2001 43.2796 69.3876 47.3148 67.7626 51.1056C66.1376 54.8964 63.9171 58.214 61.1013 61.0584C58.2829 63.9028 54.9783 66.1375 51.1875 67.7625C47.3967 69.3875 43.3342 70.2 39 70.2Z" fill="#1C1B1F"/>
</g>
</svg>
