<svg width="80" height="80" viewBox="0 0 80 80" fill="none" xmlns="http://www.w3.org/2000/svg">
<mask id="mask0_7_92" style="mask-type:alpha" maskUnits="userSpaceOnUse" x="0" y="0" width="80" height="80">
<rect width="80" height="80" fill="#D9D9D9"/>
</mask>
<g mask="url(#mask0_7_92)">
<path d="M40.0833 73C32.5833 65.4444 26.625 59.3611 22.2083 54.75C17.7916 50.1389 14.4305 46.3194 12.125 43.2917C9.8194 40.2639 8.33329 37.6667 7.66663 35.5C6.99996 33.3333 6.66663 30.9444 6.66663 28.3333C6.66663 23.2222 8.4444 18.8889 12 15.3333C15.5555 11.7778 19.8888 10 25 10C27.5 10 29.9166 10.4583 32.25 11.375C34.5833 12.2917 36.6666 13.6111 38.5 15.3333L33.3333 33.3333H43.4166L39.5833 65.25L50.1666 30H40L45.9166 12.3333C47.3055 11.5556 48.7638 10.9722 50.2916 10.5833C51.8194 10.1944 53.3888 10 55 10C60.1111 10 64.4444 11.7778 68 15.3333C71.5555 18.8889 73.3333 23.2222 73.3333 28.3333C73.3333 30.8889 73.0138 33.2361 72.375 35.375C71.7361 37.5139 70.2777 40.1111 68 43.1667C65.7222 46.2222 62.3888 50.0556 58 54.6667C53.6111 59.2778 47.6388 65.3889 40.0833 73Z" fill="#1C1B1F"/>
</g>
</svg>
