<svg width="80" height="80" viewBox="0 0 80 80" fill="none" xmlns="http://www.w3.org/2000/svg">
<mask id="mask0_7_89" style="mask-type:alpha" maskUnits="userSpaceOnUse" x="0" y="0" width="80" height="80">
<rect width="80" height="80" fill="#D9D9D9"/>
</mask>
<g mask="url(#mask0_7_89)">
<path d="M40 69.9166L36.5833 66.8333C30.6944 61.4444 25.8333 56.7916 22 52.875C18.1666 48.9583 15.1111 45.4583 12.8333 42.375C10.5555 39.2916 8.95829 36.5 8.04163 34C7.12496 31.5 6.66663 28.9722 6.66663 26.4166C6.66663 21.4166 8.34718 17.2361 11.7083 13.875C15.0694 10.5139 19.2222 8.83331 24.1666 8.83331C27.3333 8.83331 30.2638 9.58331 32.9583 11.0833C35.6527 12.5833 38 14.75 40 17.5833C42.3333 14.5833 44.8055 12.375 47.4166 10.9583C50.0277 9.54165 52.8333 8.83331 55.8333 8.83331C60.7777 8.83331 64.9305 10.5139 68.2916 13.875C71.6527 17.2361 73.3333 21.4166 73.3333 26.4166C73.3333 28.9722 72.875 31.5 71.9583 34C71.0416 36.5 69.4444 39.2916 67.1666 42.375C64.8888 45.4583 61.8333 48.9583 58 52.875C54.1666 56.7916 49.3055 61.4444 43.4166 66.8333L40 69.9166Z" fill="#1C1B1F"/>
</g>
</svg>
